<svg xmlns="http://www.w3.org/2000/svg" viewBox="0 0 135.68 136.64"><defs><style>.a{fill:none;stroke-width:5px;}.a,.b{stroke:#fff;stroke-miterlimit:10;}.b{fill:#fff;}</style></defs><title>Asset 5</title><path class="a" d="M41.24,6.19a12.48,12.48,0,0,0-17.59-.12L6.19,23.25a12.48,12.48,0,0,0-.12,17.59L33,68.09,68.11,33.44Z"/><path class="a" d="M129.62,95.81,102.76,68.57,67.62,103.22l26.86,27.24a12.48,12.48,0,0,0,17.59.12l17.42-17.18A12.48,12.48,0,0,0,129.62,95.81Z"/><path class="b" d="M5.73,94.95a12.48,12.48,0,0,0-.12,17.59L22.79,130a12.48,12.48,0,0,0,17.59.12l27.24-26.86L33,68.09Z"/><path class="b" d="M130,41.71a12.48,12.48,0,0,0,.12-17.59L112.94,6.69a12.48,12.48,0,0,0-17.59-.12L68.11,33.43l34.65,35.14Z"/><circle class="b" cx="53.39" cy="69.89" r="7.52" transform="translate(-33.78 58.22) rotate(-45)"/><circle class="b" cx="67.7" cy="84.2" r="7.52" transform="translate(-39.71 72.53) rotate(-45)"/><circle class="b" cx="82.74" cy="69.16" r="7.52" transform="translate(-24.67 78.76) rotate(-45)"/><circle class="b" cx="68.57" cy="54.7" r="7.52"/></svg>