<?xml version="1.0" encoding="UTF-8" standalone="no"?>
<svg width="68px" height="25px" viewBox="0 0 68 25" version="1.1" xmlns="http://www.w3.org/2000/svg" xmlns:xlink="http://www.w3.org/1999/xlink">
    <!-- Generator: Sketch 45.1 (43504) - http://www.bohemiancoding.com/sketch -->
    <title>Group 2</title>
    <desc>Created with Sketch.</desc>
    <defs></defs>
    <g id="Page-1" stroke="none" stroke-width="1" fill="none" fill-rule="evenodd">
        <g id="Styleguide" transform="translate(-875.000000, -1562.000000)">
            <g id="Group-2" transform="translate(875.000000, 1562.000000)">
                <rect id="Rectangle-11" fill="#FF5760" x="0" y="0" width="67.7714095" height="25" rx="4"></rect>
                <path d="M21.5151367,12.8510742 C21.5151367,14.1437239 21.1472205,15.1337856 20.411377,15.8212891 C19.6755334,16.5087925 18.6129627,16.8525391 17.2236328,16.8525391 L15,16.8525391 L15,9 L17.465332,9 C18.7472395,9 19.7426722,9.33837552 20.4516602,10.0151367 C21.1606481,10.6918979 21.5151367,11.637201 21.5151367,12.8510742 Z M19.7856445,12.894043 C19.7856445,11.2075111 19.0408603,10.3642578 17.5512695,10.3642578 L16.6650391,10.3642578 L16.6650391,15.4775391 L17.3793945,15.4775391 C18.9835692,15.4775391 19.7856445,14.6163823 19.7856445,12.894043 Z M27.6650391,16.8525391 L23.1425781,16.8525391 L23.1425781,9 L27.6650391,9 L27.6650391,10.3642578 L24.8076172,10.3642578 L24.8076172,12.0883789 L27.4663086,12.0883789 L27.4663086,13.4526367 L24.8076172,13.4526367 L24.8076172,15.4775391 L27.6650391,15.4775391 L27.6650391,16.8525391 Z M29.3032227,16.8525391 L29.3032227,9 L30.9682617,9 L30.9682617,15.4775391 L34.1533203,15.4775391 L34.1533203,16.8525391 L29.3032227,16.8525391 Z M40.0400391,16.8525391 L35.5175781,16.8525391 L35.5175781,9 L40.0400391,9 L40.0400391,10.3642578 L37.1826172,10.3642578 L37.1826172,12.0883789 L39.8413086,12.0883789 L39.8413086,13.4526367 L37.1826172,13.4526367 L37.1826172,15.4775391 L40.0400391,15.4775391 L40.0400391,16.8525391 Z M44.7075195,16.8525391 L43.0424805,16.8525391 L43.0424805,10.3857422 L40.9101562,10.3857422 L40.9101562,9 L46.8398438,9 L46.8398438,10.3857422 L44.7075195,10.3857422 L44.7075195,16.8525391 Z M52.5708008,16.8525391 L48.0483398,16.8525391 L48.0483398,9 L52.5708008,9 L52.5708008,10.3642578 L49.7133789,10.3642578 L49.7133789,12.0883789 L52.3720703,12.0883789 L52.3720703,13.4526367 L49.7133789,13.4526367 L49.7133789,15.4775391 L52.5708008,15.4775391 L52.5708008,16.8525391 Z" id="DELETE" fill="#FFFFFF"></path>
            </g>
        </g>
    </g>
</svg>