<?xml version="1.0" encoding="utf-8"?>
<!-- Generated by IcoMoon.io -->
<!DOCTYPE svg PUBLIC "-//W3C//DTD SVG 1.1//EN" "http://www.w3.org/Graphics/SVG/1.1/DTD/svg11.dtd">
<svg version="1.1" xmlns="http://www.w3.org/2000/svg" xmlns:xlink="http://www.w3.org/1999/xlink" width="32" height="32" viewBox="0 0 32 32">
<path d="M23.115 28.792l5.606-5.606-5.606-5.534-5.534 5.606zM19.090 14.491q-0.647 0-1.114 0.431t-0.467 1.078 0.467 1.078 1.114 0.431 1.078-0.431 0.431-1.078-0.431-1.078-1.078-0.431zM16 20.6q0.647 0 1.078-0.431t0.431-1.078-0.431-1.114-1.078-0.467-1.078 0.467-0.431 1.114 0.431 1.078 1.078 0.431zM12.91 17.509q0.647 0 1.114-0.431t0.467-1.078-0.467-1.078-1.114-0.431-1.078 0.431-0.431 1.078 0.431 1.078 1.078 0.431zM8.813 14.419l5.534-5.606-5.534-5.534-5.606 5.606zM16 11.4q-0.647 0-1.078 0.431t-0.431 1.078 0.431 1.114 1.078 0.467 1.078-0.467 0.431-1.114-0.431-1.078-1.078-0.431zM24.768 16l6.109 6.109q0.431 0.431 0.431 1.078t-0.431 1.078l-6.612 6.684q-0.431 0.431-1.078 0.431-0.719 0-1.15-0.431l-6.037-6.109-6.109 6.109q-0.431 0.431-1.078 0.431t-1.078-0.431l-6.684-6.684q-0.431-0.431-0.431-1.078t0.431-1.078l6.109-6.109-6.109-6.037q-0.431-0.431-0.431-1.114t0.431-1.114l6.684-6.612q0.431-0.431 1.078-0.431t1.078 0.431l6.109 6.109 6.037-6.109q0.431-0.431 1.114-0.431t1.114 0.431l6.612 6.612q0.431 0.431 0.431 1.114t-0.431 1.114z"></path>
</svg>
