<?xml version="1.0" encoding="UTF-8"?>
<svg width="20px" height="26px" viewBox="0 0 20 26" version="1.1" xmlns="http://www.w3.org/2000/svg" xmlns:xlink="http://www.w3.org/1999/xlink">
    <!-- Generator: Sketch 45.2 (43514) - http://www.bohemiancoding.com/sketch -->
    <title>Group 4</title>
    <desc>Created with Sketch.</desc>
    <defs></defs>
    <g id="Page-1" stroke="none" stroke-width="1" fill="none" fill-rule="evenodd">
        <g id="Styleguide" transform="translate(-1009.000000, -1326.000000)">
            <g id="Group-4" transform="translate(1009.000000, 1326.000000)">
                <rect id="Rectangle-15" fill="#6397E8" x="0" y="0" width="20" height="26" rx="4"></rect>
                <path d="M10.945447,13.8417754 L10.945447,13.8417754 L10.945447,13.8417754 L5.10783153,8.5208845 C4.96119287,8.38946675 4.96468426,8.17247465 5.11481433,8.03800067 L6.15874198,7.10279526 C6.30887204,6.96832129 6.55326982,6.96526506 6.69990849,7.09668281 L13.8293408,13.5972772 C13.9061516,13.6645142 13.9410655,13.756201 13.9340827,13.8448316 C13.9375741,13.9365184 13.9026602,14.025149 13.8293408,14.092386 L6.69990849,20.5899242 C6.55326982,20.7213419 6.30887204,20.7182857 6.15874198,20.5838117 L5.11481433,19.6486063 C4.96468426,19.5141323 4.96119287,19.2971402 5.10783153,19.1657225 L10.945447,13.8417754 Z" id="Shape" fill="#FFFFFF" fill-rule="nonzero" transform="translate(9.467478, 13.843303) rotate(-180.000000) translate(-9.467478, -13.843303) "></path>
            </g>
        </g>
    </g>
</svg>