<svg xmlns="http://www.w3.org/2000/svg" viewBox="0 0 82.37 135.57"><defs><style>.a{fill:#fff;}</style></defs><title>Asset 4</title><path class="a" d="M22.38,99.92a2.86,2.86,0,0,1-2.84-3.18l.15-1.34C22.82,67.55,62.51,63.34,62.51,37c0-15-10.62-19.32-18.8-19.32-13.6,0-23,6.94-25.55,22.57a2.87,2.87,0,0,1-3.27,2.4l-.14,0L2.27,40.06A2.87,2.87,0,0,1,0,36.82C3.57,13.1,18.65,0,46.51,0,65.66,0,82.37,10.1,82.37,33.94c0,34.64-42,41.12-44.21,61.31l-.24,2.16A2.86,2.86,0,0,1,35.08,100Zm5.85,10.93a10.85,10.85,0,0,1,11,10.7q0,.22,0,.45a13.59,13.59,0,0,1-13.58,13.58,10.85,10.85,0,0,1-11-10.7q0-.22,0-.45a13.59,13.59,0,0,1,13.58-13.58Z"/></svg>