<?xml version="1.0" encoding="utf-8"?>
<!-- Generated by IcoMoon.io -->
<!DOCTYPE svg PUBLIC "-//W3C//DTD SVG 1.1//EN" "http://www.w3.org/Graphics/SVG/1.1/DTD/svg11.dtd">
<svg version="1.1" xmlns="http://www.w3.org/2000/svg" xmlns:xlink="http://www.w3.org/1999/xlink" width="32" height="32" viewBox="0 0 32 32">
<path d="M6.683 22.655v-3.993h1.331v3.993h3.993v1.331h-3.993v3.993h-1.331v-3.993h-3.993v-1.331h3.993zM3.676 16.986v0 0c-2.182 1.267-3.648 3.63-3.648 6.334 0 4.043 3.278 7.321 7.321 7.321 2.705 0 5.067-1.467 6.334-3.648l4.155 4.155c1.043 1.043 2.732 1.046 3.768 0.010l9.553-9.553c1.038-1.038 1.032-2.725-0.010-3.768l-17.81-17.81h-10.649c-1.47 0-2.662 1.181-2.662 2.662v10.649l3.648 3.648zM5.038 16.372l-3.68-3.7v-9.972c0-0.734 0.601-1.342 1.342-1.342h9.972l17.519 17.375c0.521 0.516 0.523 1.354 0.008 1.872l-9.535 9.6c-0.514 0.517-1.352 0.518-1.869-0.002l-4.511-4.535c0.249-0.737 0.385-1.527 0.385-2.348 0-4.043-3.278-7.321-7.321-7.321-0.807 0-1.584 0.131-2.31 0.372v0 0zM7.348 10.676v0c-1.838 0-3.328-1.49-3.328-3.328s1.49-3.328 3.328-3.328c1.838 0 3.328 1.49 3.328 3.328s-1.49 3.328-3.328 3.328zM7.348 9.345c1.103 0 1.996-0.894 1.996-1.997s-0.894-1.997-1.997-1.997c-1.103 0-1.997 0.894-1.997 1.997s0.894 1.997 1.997 1.997v0zM7.348 29.31v0c-3.308 0-5.99-2.682-5.99-5.99s2.682-5.99 5.99-5.99c3.308 0 5.99 2.682 5.99 5.99s-2.682 5.99-5.99 5.99z"></path>
</svg>
