<?xml version="1.0" encoding="utf-8"?>
<!-- Generated by IcoMoon.io -->
<!DOCTYPE svg PUBLIC "-//W3C//DTD SVG 1.1//EN" "http://www.w3.org/Graphics/SVG/1.1/DTD/svg11.dtd">
<svg version="1.1" xmlns="http://www.w3.org/2000/svg" xmlns:xlink="http://www.w3.org/1999/xlink" width="32" height="32" viewBox="0 0 32 32">
<path d="M6.683 22.655v-3.993h1.331v3.993h3.993v1.331h-3.993v3.993h-1.331v-3.993h-3.993v-1.331h3.993zM2.707 16.018l-2.68-2.68v-10.649c0-1.48 1.192-2.662 2.662-2.662h10.649l17.81 17.81c1.042 1.042 1.048 2.73 0.010 3.768l-9.553 9.553c-1.036 1.036-2.725 1.033-3.768-0.010l-3.187-3.187c0.854-1.341 1.349-2.933 1.349-4.641 0-4.778-3.874-8.652-8.652-8.652-1.708 0-3.3 0.495-4.641 1.349v0 0zM7.348 9.345c1.103 0 1.996-0.894 1.996-1.997s-0.894-1.997-1.997-1.997c-1.103 0-1.997 0.894-1.997 1.997s0.894 1.997 1.997 1.997v0zM7.348 30.641c4.043 0 7.321-3.278 7.321-7.321s-3.278-7.321-7.321-7.321c-4.043 0-7.321 3.278-7.321 7.321s3.278 7.321 7.321 7.321v0z"></path>
</svg>
