<svg xmlns="http://www.w3.org/2000/svg" viewBox="0 0 126.71 142.1"><defs><style>.a{fill:#62e2d9;fill-rule:evenodd;}</style></defs><title>Asset 7</title><path class="a" d="M117.69,101.59a1,1,0,0,1-.24-1.82c2.37-1.42,4.81-2.69,6.19-4.23a1.12,1.12,0,0,0,.17-.26c7-14.46-.18-16.5-5.87-17a1,1,0,0,1-.64-1.68c1.7-1.87,4.16-3.06,4.89-5.42,5-16.11-21.91-17.76-21.91-17.76S91.49,53,87.7,51.54a1,1,0,0,1-.62-1c1.71-14.85,11.15-45.09-6-50.26l-.14,0c-2.65-.54-6.82.07-9.31.82a1,1,0,0,0-.71.8c-.77,5.38.73,14.3-.9,20.4-4.8,17.9-22.18,36.72-37.47,44.73a1,1,0,0,0-.53.88v60.4c.5,4.81,12.66,6.76,17.81,8.94,17.89,7.57,48.82,4.8,58.53,2.35a1,1,0,0,0,.31-.13c2.58-1.64,4.91-5.74,5.53-7.44a1.1,1.1,0,0,0,.05-.2c.58-3.5-.38-4.7-2.44-6.29a1,1,0,0,1,.33-1.75c3.45-1,6.32-2.15,8.08-3.75,3.67-3.33,5.25-11.36,2.16-15.71C121.57,103.08,119.51,102.1,117.69,101.59ZM25,62.22H1a1,1,0,0,0-1,1v69a1,1,0,0,0,1,1H25a1,1,0,0,0,1-1v-69A1,1,0,0,0,25,62.22Z"/></svg>