<?xml version="1.0" encoding="UTF-8" standalone="no"?>
<svg width="21px" height="17px" viewBox="0 0 21 17" version="1.1" xmlns="http://www.w3.org/2000/svg" xmlns:xlink="http://www.w3.org/1999/xlink">
    <!-- Generator: Sketch 45.1 (43504) - http://www.bohemiancoding.com/sketch -->
    <title>ContributorsShowMore</title>
    <desc>Created with Sketch.</desc>
    <defs></defs>
    <g id="Page-1" stroke="none" stroke-width="1" fill="none" fill-rule="evenodd">
        <g id="FreeForm-with-Measurements" transform="translate(-41.000000, -130.000000)">
            <g id="ContributorsShowMore" transform="translate(41.455750, 130.687806)">
                <rect id="Rectangle" fill="#4DB2AB" x="0.358371542" y="0.278733421" width="19.3717568" height="15.066922" rx="4"></rect>
                <g id="chevron-down" transform="translate(3.720093, 4.720093)" fill-rule="nonzero" fill="#FFFFFF">
                    <path d="M6.48726097,5.1417386 L6.48726097,5.1417386 L6.48726097,5.1417386 L11.3107699,0.512056071 C11.4298347,0.395760218 11.6264301,0.398529167 11.7482638,0.517593969 L12.5955622,1.34550968 C12.717396,1.46457449 12.7201649,1.65840091 12.6011001,1.77469676 L6.71154583,7.42889037 C6.65062896,7.48980725 6.56756049,7.51749674 6.48726097,7.51195884 C6.40419251,7.51472779 6.32389299,7.4870383 6.26297611,7.42889037 L0.373421846,1.77469676 C0.254357044,1.65840091 0.257125993,1.46457449 0.378959744,1.34550968 L1.2262581,0.517593969 C1.34809185,0.398529167 1.54468722,0.395760218 1.66375202,0.512056071 L6.48726097,5.1417386 Z" id="Shape" transform="translate(6.487261, 3.969594) rotate(-360.000000) translate(-6.487261, -3.969594) "></path>
                </g>
            </g>
        </g>
    </g>
</svg>