<?xml version="1.0" encoding="UTF-8" standalone="no"?>
<svg width="39px" height="8px" viewBox="0 0 39 8" version="1.1" xmlns="http://www.w3.org/2000/svg" xmlns:xlink="http://www.w3.org/1999/xlink">
    <!-- Generator: Sketch 45.1 (43504) - http://www.bohemiancoding.com/sketch -->
    <title>DELETE</title>
    <desc>Created with Sketch.</desc>
    <defs></defs>
    <g id="Page-1" stroke="none" stroke-width="1" fill="none" fill-rule="evenodd">
        <g id="FreeForm-Visual-Comment-Update" transform="translate(-899.000000, -609.000000)" fill="#FF5760">
            <g id="CommentBox-Copy" transform="translate(615.000000, 25.000000)">
                <g id="eclipsedComment-Copy" transform="translate(12.000000, 486.000000)">
                    <g id="Group-5" transform="translate(272.000000, 89.000000)">
                        <path d="M7.50341797,12.9985352 C7.50341797,14.2911848 7.13550173,15.2812466 6.3996582,15.96875 C5.66381468,16.6562534 4.60124393,17 3.21191406,17 L0.98828125,17 L0.98828125,9.14746094 L3.45361328,9.14746094 C4.73552073,9.14746094 5.73095349,9.48583646 6.43994141,10.1625977 C7.14892933,10.8393589 7.50341797,11.7846619 7.50341797,12.9985352 Z M5.77392578,13.0415039 C5.77392578,11.354972 5.02914156,10.5117188 3.53955078,10.5117188 L2.65332031,10.5117188 L2.65332031,15.625 L3.36767578,15.625 C4.97185047,15.625 5.77392578,14.7638432 5.77392578,13.0415039 Z M13.6533203,17 L9.13085938,17 L9.13085938,9.14746094 L13.6533203,9.14746094 L13.6533203,10.5117188 L10.7958984,10.5117188 L10.7958984,12.2358398 L13.4545898,12.2358398 L13.4545898,13.6000977 L10.7958984,13.6000977 L10.7958984,15.625 L13.6533203,15.625 L13.6533203,17 Z M15.2915039,17 L15.2915039,9.14746094 L16.956543,9.14746094 L16.956543,15.625 L20.1416016,15.625 L20.1416016,17 L15.2915039,17 Z M26.0283203,17 L21.5058594,17 L21.5058594,9.14746094 L26.0283203,9.14746094 L26.0283203,10.5117188 L23.1708984,10.5117188 L23.1708984,12.2358398 L25.8295898,12.2358398 L25.8295898,13.6000977 L23.1708984,13.6000977 L23.1708984,15.625 L26.0283203,15.625 L26.0283203,17 Z M30.6958008,17 L29.0307617,17 L29.0307617,10.5332031 L26.8984375,10.5332031 L26.8984375,9.14746094 L32.828125,9.14746094 L32.828125,10.5332031 L30.6958008,10.5332031 L30.6958008,17 Z M38.559082,17 L34.0366211,17 L34.0366211,9.14746094 L38.559082,9.14746094 L38.559082,10.5117188 L35.7016602,10.5117188 L35.7016602,12.2358398 L38.3603516,12.2358398 L38.3603516,13.6000977 L35.7016602,13.6000977 L35.7016602,15.625 L38.559082,15.625 L38.559082,17 Z" id="DELETE"></path>
                    </g>
                </g>
            </g>
        </g>
    </g>
</svg>