<?xml version="1.0" encoding="utf-8"?>
<!-- Generated by IcoMoon.io -->
<!DOCTYPE svg PUBLIC "-//W3C//DTD SVG 1.1//EN" "http://www.w3.org/Graphics/SVG/1.1/DTD/svg11.dtd">
<svg version="1.1" xmlns="http://www.w3.org/2000/svg" xmlns:xlink="http://www.w3.org/1999/xlink" width="32" height="32" viewBox="0 0 32 32">
<path d="M19.982 18.414l-10.44-6.028c-1.28-0.741-2.92-0.301-3.659 0.979-0.739 1.282-0.3 2.92 0.981 3.66l10.439 6.028c1.282 0.741 2.92 0.301 3.66-0.98 0.742-1.28 0.303-2.919-0.979-3.658zM11.372 11.896l8.12 4.688 2.762-7.686-5.607-3.236-5.275 6.234zM5.386 31.64l7.768-9.435-3.48-2.009-4.288 11.445zM25.61 4.648l-6.959-4.019c-0.962-0.554-2.19-0.226-2.745 0.735-0.556 0.962-0.225 2.19 0.735 2.745l6.96 4.018c0.962 0.555 2.19 0.226 2.745-0.735s0.225-2.19-0.737-2.745z"></path>
</svg>
