<?xml version="1.0" encoding="UTF-8" standalone="no"?>
<svg width="20px" height="26px" viewBox="0 0 20 26" version="1.1" xmlns="http://www.w3.org/2000/svg" xmlns:xlink="http://www.w3.org/1999/xlink">
    <!-- Generator: Sketch 45.2 (43514) - http://www.bohemiancoding.com/sketch -->
    <title>Group 3</title>
    <desc>Created with Sketch.</desc>
    <defs></defs>
    <g id="Page-1" stroke="none" stroke-width="1" fill="none" fill-rule="evenodd">
        <g id="Adding-Comment/Filter-Area" transform="translate(-461.000000, -71.000000)">
            <g id="Group-3" transform="translate(461.000000, 71.000000)">
                <rect id="Rectangle-15-Copy" fill="#62E2D9" transform="translate(10.000000, 13.000000) rotate(-180.000000) translate(-10.000000, -13.000000) " x="0" y="0" width="20" height="26" rx="4"></rect>
                <path d="M11.945447,13.8417754 L11.945447,13.8417754 L11.945447,13.8417754 L6.10783153,8.5208845 C5.96119287,8.38946675 5.96468426,8.17247465 6.11481433,8.03800067 L7.15874198,7.10279526 C7.30887204,6.96832129 7.55326982,6.96526506 7.69990849,7.09668281 L14.8293408,13.5972772 C14.9061516,13.6645142 14.9410655,13.756201 14.9340827,13.8448316 C14.9375741,13.9365184 14.9026602,14.025149 14.8293408,14.092386 L7.69990849,20.5899242 C7.55326982,20.7213419 7.30887204,20.7182857 7.15874198,20.5838117 L6.11481433,19.6486063 C5.96468426,19.5141323 5.96119287,19.2971402 6.10783153,19.1657225 L11.945447,13.8417754 Z" id="Shape-Copy" fill="#FFFFFF" fill-rule="nonzero" transform="translate(10.467478, 13.843303) rotate(-360.000000) translate(-10.467478, -13.843303) "></path>
            </g>
        </g>
    </g>
</svg>