<svg xmlns="http://www.w3.org/2000/svg" viewBox="0 0 129.71 145.1"><defs><style>.a{fill:#fff;fill-rule:evenodd;}.b{fill:none;stroke:#62e2d9;stroke-miterlimit:10;stroke-width:3px;}</style></defs><title>Asset 5</title><path class="a" d="M119.19,103.09a1,1,0,0,1-.24-1.82c2.37-1.42,4.81-2.69,6.19-4.23a1.11,1.11,0,0,0,.17-.26c7-14.46-.18-16.5-5.87-17a1,1,0,0,1-.64-1.68c1.7-1.87,4.16-3.06,4.89-5.42,5-16.11-21.91-17.76-21.91-17.76S93,54.53,89.2,53a1,1,0,0,1-.62-1c1.71-14.85,11.15-45.09-6-50.26l-.14,0c-2.65-.54-6.82.07-9.31.82a1,1,0,0,0-.71.8c-.77,5.38.73,14.3-.9,20.4C66.7,41.62,49.32,60.44,34,68.45a1,1,0,0,0-.53.88v60.4c.5,4.81,12.66,6.76,17.81,8.94,17.89,7.57,48.82,4.8,58.53,2.35a1,1,0,0,0,.31-.13c2.58-1.64,4.91-5.74,5.53-7.45a1.1,1.1,0,0,0,.05-.2c.58-3.5-.38-4.7-2.44-6.29a1,1,0,0,1,.33-1.75c3.45-1,6.32-2.15,8.08-3.75,3.67-3.33,5.25-11.36,2.16-15.71C123.07,104.58,121,103.6,119.19,103.09ZM26.5,63.72H2.5a1,1,0,0,0-1,1v69a1,1,0,0,0,1,1h24a1,1,0,0,0,1-1v-69A1,1,0,0,0,26.5,63.72Z"/><path class="b" d="M119.19,103.09a1,1,0,0,1-.24-1.82c2.37-1.42,4.81-2.69,6.19-4.23a1.11,1.11,0,0,0,.17-.26c7-14.46-.18-16.5-5.87-17a1,1,0,0,1-.64-1.68c1.7-1.87,4.16-3.06,4.89-5.42,5-16.11-21.91-17.76-21.91-17.76S93,54.53,89.2,53a1,1,0,0,1-.62-1c1.71-14.85,11.15-45.09-6-50.26l-.14,0c-2.65-.54-6.82.07-9.31.82a1,1,0,0,0-.71.8c-.77,5.38.73,14.3-.9,20.4C66.7,41.62,49.32,60.44,34,68.45a1,1,0,0,0-.53.88v60.4c.5,4.81,12.66,6.76,17.81,8.94,17.89,7.57,48.82,4.8,58.53,2.35a1,1,0,0,0,.31-.13c2.58-1.64,4.91-5.74,5.53-7.45a1.1,1.1,0,0,0,.05-.2c.58-3.5-.38-4.7-2.44-6.29a1,1,0,0,1,.33-1.75c3.45-1,6.32-2.15,8.08-3.75,3.67-3.33,5.25-11.36,2.16-15.71C123.07,104.58,121,103.6,119.19,103.09ZM26.5,63.72H2.5a1,1,0,0,0-1,1v69a1,1,0,0,0,1,1h24a1,1,0,0,0,1-1v-69A1,1,0,0,0,26.5,63.72Z"/></svg>