<svg style="position: absolute; width: 0; height: 0;" width="0" height="0" version="1.1" xmlns="http://www.w3.org/2000/svg" xmlns:xlink="http://www.w3.org/1999/xlink">
<defs>
<symbol id="icon-clippy" viewBox="0 0 896 1024">
<title>clippy</title>
<path class="path1" d="M704 896h-640v-576h640v192h64v-320c0-35-29-64-64-64h-192c0-71-57-128-128-128s-128 57-128 128h-192c-35 0-64 29-64 64v704c0 35 29 64 64 64h640c35 0 64-29 64-64v-128h-64v128zM192 192c29 0 29 0 64 0s64-29 64-64 29-64 64-64 64 29 64 64 32 64 64 64 33 0 64 0 64 29 64 64h-512c0-39 28-64 64-64zM128 704h128v-64h-128v64zM576 576v-128l-256 192 256 192v-128h320v-128h-320zM128 832h192v-64h-192v64zM448 384h-320v64h320v-64zM256 512h-128v64h128v-64z"></path>
</symbol>
<symbol id="icon-fork" viewBox="0 0 896 1024">
<title>fork</title>
<path class="path1" d="M640 0v124c0 51.264-20 99.488-56.128 135.616l-362.112 360.128c-57.248 57.12-88.768 132.128-92.256 212.256h-129.504l192 192 192-192h-126.624c3.36-46.016 21.888-88.736 54.752-121.76l362.112-360c60.512-60.48 93.76-140.736 93.76-226.24v-124h-128zM766.496 832c-3.488-80.128-35.136-155.136-92.384-212.512l-71.36-70.88-90.752 90.272 71.744 71.36c32.992 32.864 51.488 75.744 54.88 121.76h-126.624l192 192 192-192h-129.504z"></path>
</symbol>
<symbol id="icon-healing" viewBox="0 0 1024 1024">
<title>healing</title>
<path class="path1" d="M739.676 921.358l179.382-179.382-179.382-177.082-177.082 179.382zM610.89 463.704q-20.698 0-35.646 13.798t-14.948 34.496 14.948 34.496 35.646 13.798 34.496-13.798 13.798-34.496-13.798-34.496-34.496-13.798zM512 659.186q20.698 0 34.496-13.798t13.798-34.496-13.798-35.646-34.496-14.948-34.496 14.948-13.798 35.646 13.798 34.496 34.496 13.798zM413.11 560.296q20.698 0 35.646-13.798t14.948-34.496-14.948-34.496-35.646-13.798-34.496 13.798-13.798 34.496 13.798 34.496 34.496 13.798zM282.024 461.406l177.082-179.382-177.082-177.082-179.382 179.382zM512 364.814q-20.698 0-34.496 13.798t-13.798 34.496 13.798 35.646 34.496 14.948 34.496-14.948 13.798-35.646-13.798-34.496-34.496-13.798zM792.572 512l195.48 195.48q13.798 13.798 13.798 34.496t-13.798 34.496l-211.578 213.878q-13.798 13.798-34.496 13.798-22.998 0-36.796-13.798l-193.18-195.48-195.48 195.48q-13.798 13.798-34.496 13.798t-34.496-13.798l-213.878-213.878q-13.798-13.798-13.798-34.496t13.798-34.496l195.48-195.48-195.48-193.18q-13.798-13.798-13.798-35.646t13.798-35.646l213.878-211.578q13.798-13.798 34.496-13.798t34.496 13.798l195.48 195.48 193.18-195.48q13.798-13.798 35.646-13.798t35.646 13.798l211.578 211.578q13.798 13.798 13.798 35.646t-13.798 35.646z"></path>
</symbol>
<symbol id="icon-pin" viewBox="0 0 1024 1024">
<title>pin</title>
<path class="path1" d="M639.432 589.24l-334.080-192.888c-40.976-23.704-93.444-9.644-117.104 31.332-23.66 41.020-9.6 93.444 31.376 117.104l334.036 192.888c41.020 23.704 93.444 9.644 117.104-31.376 23.748-40.976 9.688-93.4-31.332-117.060zM363.908 380.668l259.84 150.024 88.384-245.952-179.428-103.56-168.796 199.488zM172.348 1012.476l248.564-301.932-111.36-64.296-137.208 366.228zM819.504 148.732l-222.676-128.592c-30.776-17.744-70.080-7.244-87.828 23.532-17.788 30.776-7.2 70.080 23.532 87.828l222.72 128.592c30.776 17.744 70.080 7.244 87.828-23.532s7.2-70.080-23.576-87.828z"></path>
</symbol>
<symbol id="icon-tag-add" viewBox="0 0 1024 1024">
<title>tag-add</title>
<path class="path1" d="M213.848 724.964v-127.78h42.592v127.78h127.78v42.592h-127.78v127.78h-42.592v-127.78h-127.78v-42.592h127.78zM86.638 512.566l-85.754-85.754v-340.76c0-47.37 38.132-85.172 85.172-85.172h340.76l569.933 569.933c33.357 33.357 33.528 87.362 0.321 120.564l-305.685 305.685c-33.153 33.153-87.185 33.062-120.564-0.321l-101.979-101.979c27.327-42.913 43.162-93.862 43.162-148.51 0-152.903-123.953-276.856-276.856-276.856-54.648 0-105.593 15.831-148.51 43.162v0 0zM235.144 299.036c35.286 0 63.888-28.602 63.888-63.888s-28.602-63.888-63.888-63.888c-35.286 0-63.888 28.602-63.888 63.888s28.602 63.888 63.888 63.888v0zM235.144 980.524c129.378 0 234.26-104.882 234.26-234.26s-104.882-234.26-234.26-234.26c-129.378 0-234.26 104.882-234.26 234.26s104.882 234.26 234.26 234.26v0z"></path>
</symbol>
</defs>
</svg>
